<?xml version="1.0" encoding="UTF-8" standalone="no"?>
<svg
   width="229"
   height="20"
   viewBox="0 0 229 20"
   fill="none"
   version="1.1"
   id="svg1053"
   sodipodi:docname="logo.svg"
   inkscape:version="1.2.2 (732a01da63, 2022-12-09)"
   xml:space="preserve"
   xmlns:inkscape="http://www.inkscape.org/namespaces/inkscape"
   xmlns:sodipodi="http://sodipodi.sourceforge.net/DTD/sodipodi-0.dtd"
   xmlns="http://www.w3.org/2000/svg"
   xmlns:svg="http://www.w3.org/2000/svg"><defs
     id="defs1057" /><sodipodi:namedview
     id="namedview1055"
     pagecolor="#ffffff"
     bordercolor="#000000"
     borderopacity="0.25"
     inkscape:showpageshadow="2"
     inkscape:pageopacity="0.0"
     inkscape:pagecheckerboard="0"
     inkscape:deskcolor="#d1d1d1"
     showgrid="false"
     inkscape:zoom="0.63209607"
     inkscape:cx="37.968912"
     inkscape:cy="-11.074266"
     inkscape:window-width="1920"
     inkscape:window-height="1004"
     inkscape:window-x="-8"
     inkscape:window-y="-8"
     inkscape:window-maximized="1"
     inkscape:current-layer="svg1053" /><path
     fill-rule="evenodd"
     clip-rule="evenodd"
     d="M8.866 5.07c-2.151 0-3.81 1.66-3.81 3.93 0 2.19 1.648 3.88 3.77 3.93.94-.006 1.846-.376 3.02-1.333.848-.693 1.688-1.563 2.678-2.63-.963-1.037-1.786-1.886-2.617-2.564C10.725 5.44 9.814 5.07 8.866 5.07Zm9.103.166c-.946-1.01-1.903-1.977-2.87-2.766C13.405 1.09 11.396 0 8.866 0 3.809 0 0 4.044 0 9c0 4.901 3.808 8.911 8.759 9h.045c2.531 0 4.54-1.09 6.232-2.47.989-.807 1.967-1.8 2.933-2.832.966 1.033 1.944 2.025 2.932 2.832 1.692 1.38 3.702 2.47 6.233 2.47C32.112 18 36 13.972 36 9c0-5.005-3.982-9-8.928-9-2.531 0-4.54 1.09-6.233 2.47-.967.79-1.924 1.757-2.87 2.766Zm3.445 3.73c.99 1.068 1.83 1.938 2.679 2.63 1.182.965 2.093 1.334 3.041 1.334 2.105 0 3.81-1.677 3.81-3.93 0-2.22-1.735-3.93-3.872-3.93-.948 0-1.86.369-3.041 1.333-.831.678-1.654 1.527-2.617 2.564Z"
     fill="#D82828"
     id="path1049" /><g
     aria-label="Buana Studios"
     id="text1802"
     style="font-weight:bold;font-size:22.7979px;font-family:Gadugi;-inkscape-font-specification:'Gadugi Bold';display:none;fill:#000000;stroke-width:1.31527"><path
       d="M 45.078001,17.145792 V 1.1828098 h 5.810793 q 2.671629,0 4.107629,0.9795973 1.436001,0.9795972 1.436001,2.7606831 0,1.2912872 -0.879412,2.2597527 -0.868279,0.9684654 -2.226357,1.3469462 v 0.044527 q 1.703163,0.211504 2.716156,1.2578919 1.024124,1.046388 1.024124,2.549179 0,2.192962 -1.569582,3.48425 -1.569582,1.280155 -4.285737,1.280155 z M 48.673568,3.8321751 v 3.7848075 h 1.580714 q 1.113179,0 1.74769,-0.5343258 0.645644,-0.5454576 0.645644,-1.4916594 0,-1.7588223 -2.627102,-1.7588223 z m 0,6.4564359 v 4.207816 h 1.948063 q 1.24676,0 1.948063,-0.578853 0.712434,-0.578853 0.712434,-1.580714 0,-0.957334 -0.701303,-1.502791 -0.69017,-0.545458 -1.936931,-0.545458 z"
       id="path843" /><path
       d="m 70.180181,17.145792 h -3.506513 v -1.736559 h -0.05566 q -1.302419,2.014854 -3.484249,2.014854 -3.962917,0 -3.962917,-4.7978 V 5.7468424 h 3.506513 v 6.5677546 q 0,2.415597 1.914668,2.415597 0.946201,0 1.513923,-0.656775 0.567721,-0.667907 0.567721,-1.80335 V 5.7468424 h 3.506513 z"
       id="path845" /><path
       d="m 82.625519,17.145792 h -3.328404 v -1.636373 h -0.04453 q -1.146574,1.914668 -3.395195,1.914668 -1.658636,0 -2.61597,-0.93507 -0.946202,-0.946202 -0.946202,-2.515784 0,-3.317273 3.929521,-3.829335 l 3.094637,-0.411876 q 0,-1.8701401 -2.025986,-1.8701401 -2.037117,0 -3.873861,1.2133647 V 6.4258814 q 0.734698,-0.3784808 2.003721,-0.6679072 1.280156,-0.2894265 2.326544,-0.2894265 4.875722,0 4.875722,4.8645913 z m -3.30614,-4.630823 v -0.768094 l -2.070513,0.267163 q -1.714295,0.222636 -1.714295,1.547319 0,0.601116 0.411876,0.990729 0.423008,0.37848 1.135443,0.37848 0.990729,0 1.614109,-0.679039 0.62338,-0.69017 0.62338,-1.736558 z"
       id="path847" /><path
       d="m 96.417801,17.145792 h -3.506513 v -6.333987 q 0,-2.6493649 -1.892403,-2.6493649 -0.912807,0 -1.502792,0.7013026 -0.589984,0.7013025 -0.589984,1.7810863 v 6.500963 H 85.408464 V 5.7468424 h 3.517645 v 1.8033494 h 0.04453 q 1.257892,-2.0816441 3.662358,-2.0816441 3.784807,0 3.784807,4.6976143 z"
       id="path849" /><path
       d="m 108.68503,17.145792 h -3.3284 v -1.636373 h -0.0445 q -1.14657,1.914668 -3.39519,1.914668 -1.65864,0 -2.615974,-0.93507 -0.946202,-0.946202 -0.946202,-2.515784 0,-3.317273 3.929526,-3.829335 l 3.09463,-0.411876 q 0,-1.8701401 -2.02598,-1.8701401 -2.03712,0 -3.873865,1.2133647 V 6.4258814 q 0.734695,-0.3784808 2.003725,-0.6679072 1.28015,-0.2894265 2.32654,-0.2894265 4.87572,0 4.87572,4.8645913 z m -3.30614,-4.630823 v -0.768094 l -2.07051,0.267163 q -1.7143,0.222636 -1.7143,1.547319 0,0.601116 0.41188,0.990729 0.42301,0.37848 1.13544,0.37848 0.99073,0 1.61411,-0.679039 0.62338,-0.69017 0.62338,-1.736558 z"
       id="path851" /><path
       d="m 117.36782,16.533544 v -3.562172 q 0.96847,0.81262 2.10391,1.224497 1.13544,0.400744 2.29315,0.400744 0.67904,0 1.17997,-0.12245 0.51206,-0.122449 0.84601,-0.333953 0.34509,-0.222636 0.51207,-0.512063 0.16697,-0.300558 0.16697,-0.645643 0,-0.467535 -0.26716,-0.834884 -0.26716,-0.367349 -0.7347,-0.679039 -0.4564,-0.31169 -1.09091,-0.601117 -0.63451,-0.289426 -1.36921,-0.589984 -1.87014,-0.7792255 -2.79408,-1.9035359 -0.91281,-1.1243105 -0.91281,-2.716156 0,-1.2467601 0.50093,-2.1373031 0.50093,-0.9016747 1.35808,-1.4805276 0.86828,-0.5788529 2.00372,-0.8460158 1.13545,-0.27829466 2.40447,-0.27829466 1.24676,0 2.20409,0.15584506 0.96847,0.1447132 1.78109,0.4564032 V 4.8562994 Q 127.15266,4.5780048 126.674,4.3665008 126.20646,4.1549969 125.70553,4.0214154 125.2046,3.8767022 124.70367,3.8099115 q -0.4898,-0.066791 -0.93507,-0.066791 -0.61225,0 -1.11318,0.1224496 -0.50093,0.1113179 -0.84601,0.3228218 -0.34509,0.211504 -0.53433,0.5120622 -0.18924,0.2894265 -0.18924,0.6567754 0,0.4007444 0.2115,0.7235662 0.21151,0.31169 0.60112,0.6011165 0.38961,0.2782946 0.9462,0.5565893 0.55659,0.2671629 1.25789,0.5565893 0.95734,0.4007444 1.7143,0.8571476 0.76809,0.4452715 1.31355,1.0129926 0.54546,0.567721 0.83488,1.302419 0.28943,0.723567 0.28943,1.692032 0,1.335814 -0.51206,2.248621 -0.50093,0.901675 -1.36921,1.469396 -0.86828,0.556589 -2.02599,0.801488 -1.14657,0.2449 -2.42673,0.2449 -1.31355,0 -2.50465,-0.222636 -1.17997,-0.222636 -2.04825,-0.667907 z"
       id="path853" /><path
       d="m 137.4273,17.012211 q -0.77922,0.411876 -2.34881,0.411876 -3.71801,0 -3.71801,-3.86273 V 8.3405487 H 129.5126 V 5.7468424 h 1.84788 V 3.2867175 l 3.50651,-1.0018608 v 3.4619857 h 2.56031 v 2.5937063 h -2.56031 v 4.6085593 q 0,1.781086 1.41374,1.781086 0.55659,0 1.14657,-0.322822 z"
       id="path855" /><path
       d="m 150.23999,17.145792 h -3.50651 v -1.736559 h -0.0557 q -1.30242,2.014854 -3.48425,2.014854 -3.96291,0 -3.96291,-4.7978 V 5.7468424 h 3.50651 v 6.5677546 q 0,2.415597 1.91467,2.415597 0.9462,0 1.51392,-0.656775 0.56772,-0.667907 0.56772,-1.80335 V 5.7468424 h 3.50651 z"
       id="path857" /><path
       d="m 164.3551,17.145792 h -3.51765 V 15.57621 h -0.0445 q -1.20224,1.847877 -3.52878,1.847877 -2.1373,0 -3.43972,-1.502792 -1.30242,-1.513923 -1.30242,-4.218947 0,-2.8274735 1.436,-4.5306369 1.436,-1.7031634 3.76254,-1.7031634 2.2041,0 3.07238,1.5807137 h 0.0445 V 0.27000331 h 3.51765 z m -3.45086,-5.54363 v -0.857147 q 0,-1.113179 -0.64564,-1.847877 -0.64564,-0.7346979 -1.6809,-0.7346979 -1.16884,0 -1.82561,0.9239383 -0.65678,0.9128065 -0.65678,2.5157836 0,1.502791 0.63451,2.315412 0.63452,0.81262 1.75883,0.81262 1.06865,0 1.73656,-0.857147 0.67903,-0.857148 0.67903,-2.270885 z"
       id="path859" /><path
       d="m 169.09724,3.9434929 q -0.89054,0 -1.45827,-0.5231939 -0.56772,-0.5343258 -0.56772,-1.3024191 0,-0.7903569 0.56772,-1.29128726 0.56773,-0.5009304 1.45827,-0.5009304 0.90167,0 1.45826,0.5009304 0.56772,0.50093036 0.56772,1.29128726 0,0.8014887 -0.56772,1.3135508 -0.55659,0.5120622 -1.45826,0.5120622 z m 1.73656,13.2022991 h -3.51765 V 5.7468424 h 3.51765 z"
       id="path861" /><path
       d="m 179.22716,17.424087 q -2.84973,0 -4.48611,-1.591846 -1.62524,-1.602977 -1.62524,-4.341397 0,-2.8274735 1.69203,-4.419319 1.69204,-1.6029773 4.57517,-1.6029773 2.8386,0 4.45271,1.6029773 1.61411,1.5918455 1.61411,4.218947 0,2.838606 -1.66977,4.48611 -1.65863,1.647505 -4.5529,1.647505 z m 0.0891,-9.2616469 q -1.24676,0 -1.93693,0.8571476 -0.69017,0.8571476 -0.69017,2.4267293 0,3.283877 2.64936,3.283877 2.52692,0 2.52692,-3.372931 0,-3.1948229 -2.54918,-3.1948229 z"
       id="path863" /><path
       d="m 186.98602,16.845234 v -2.849738 q 0.86828,0.523194 1.72542,0.779225 0.86828,0.256032 1.63638,0.256032 0.93507,0 1.46939,-0.256032 0.54546,-0.256031 0.54546,-0.779225 0,-0.333953 -0.2449,-0.556589 -0.2449,-0.222636 -0.63451,-0.389613 -0.37848,-0.166976 -0.83488,-0.300558 -0.45641,-0.133581 -0.87942,-0.300558 -0.67903,-0.256031 -1.20223,-0.545458 -0.51206,-0.300558 -0.86828,-0.69017 -0.34508,-0.389613 -0.53432,-0.901675 -0.17811,-0.5120622 -0.17811,-1.2133648 0,-0.9573337 0.41187,-1.6475044 0.42301,-0.6901708 1.11318,-1.1243105 0.70131,-0.4452715 1.59185,-0.6456436 0.90167,-0.211504 1.87014,-0.211504 0.75696,0 1.53618,0.1224497 0.77923,0.1113178 1.53619,0.3339536 v 2.7161559 q -0.66791,-0.3896125 -1.436,-0.5788529 -0.75696,-0.2003721 -1.49166,-0.2003721 -0.34508,0 -0.65677,0.066791 -0.30056,0.055659 -0.53433,0.1781086 -0.23377,0.1113178 -0.36735,0.3005582 -0.13358,0.1781086 -0.13358,0.4118761 0,0.3116901 0.20037,0.5343258 0.20037,0.2226357 0.5232,0.3896125 0.32282,0.155845 0.71243,0.2894259 0.40074,0.12245 0.79036,0.256031 0.7013,0.2449 1.26902,0.534326 0.56772,0.289427 0.96847,0.679039 0.41187,0.389613 0.62338,0.912807 0.22263,0.523194 0.22263,1.24676 0,1.012992 -0.44527,1.736558 -0.43414,0.712435 -1.16884,1.168838 -0.72356,0.445272 -1.6809,0.645644 -0.9462,0.211504 -1.97032,0.211504 -1.88127,0 -3.48425,-0.578853 z"
       id="path865" /></g><path
     style="fill:#000000;stroke-width:0.17339"
     d="M 63.259047,17.467269 C 61.397993,16.877158 59.876476,15.539603 59.042326,13.760383 L 58.577357,12.768616 58.523942,6.5633065 58.470585,0.358 l 1.700649,0.0497468 1.700651,0.0497468 0.04034,5.8945716 0.04034,5.8945728 0.479843,0.681166 c 1.434503,2.036315 4.23172,1.902117 5.508336,-0.264274 0.325638,-0.552603 0.349379,-0.942843 0.38926,-6.397267 l 0.0425,-5.80876935 h 1.604801 1.604793 l 0.04561,5.88699895 c 0.05114,6.5767344 0.01466,6.8531124 -1.124815,8.5496994 -1.512001,2.251176 -4.69426,3.381535 -7.243894,2.573073 z m 9.031582,-0.05976 c -0.03705,-0.03704 0.381245,-0.939989 0.929682,-2.006391 1.319429,-2.565571 5.430129,-10.6228008 6.67313,-13.0796108 0.89664,-1.77225241 1.030451,-1.95070457 1.463096,-1.95070457 0.419299,0 0.54174,0.14148238 1.024337,1.18301837 0.301424,0.6506614 1.047252,2.2307325 1.657386,3.5112688 1.333217,2.7985041 2.385507,5.0238912 3.150444,6.6631502 0.311522,0.667577 1.04352,2.21648 1.626584,3.442007 0.583024,1.225527 1.06008,2.239895 1.060168,2.254148 8.8e-5,0.01421 -0.721592,0.0087 -1.603838,-0.01238 -0.882281,-0.02099 -1.726928,-0.04059 -1.877158,-0.0434 -0.164188,-0.0031 -0.470126,-0.436698 -0.767955,-1.088765 -0.272235,-0.596051 -0.90332,-1.942037 -1.402393,-2.991081 -0.499164,-1.049046 -1.335907,-2.843696 -1.859568,-3.9881073 -0.523562,-1.1444168 -1.006759,-2.0807508 -1.073747,-2.0807508 -0.06688,0 -1.265805,2.238238 -2.664292,4.9738611 -1.398385,2.73563 -2.580106,5.009496 -2.626033,5.053049 -0.105325,0.09986 -3.618499,0.25199 -3.709843,0.16065 z M 91.78272,8.9105537 V 0.37080023 h 0.488304 c 0.408936,0 1.241888,0.76094807 5.124616,4.68169237 2.550109,2.5749305 4.71023,4.6816923 4.80029,4.6816923 0.0989,0 0.16396,-1.8574747 0.16396,-4.6816923 V 0.37080023 h 1.64889 1.6489 l -0.045,8.52324707 c -0.0435,8.3708517 -0.0504,8.5242777 -0.39176,8.5807877 -0.34793,0.05777 -3.17677,-2.715679 -7.93928,-7.7839997 -1.05304,-1.1205696 -1.979752,-2.037401 -2.059448,-2.037401 -0.07968,0 -0.144936,2.2042922 -0.144936,4.8984387 v 4.898434 h -1.64724 -1.647248 z m 16.7859,8.4892853 -1.33413,-0.05053 1.44014,-2.810566 c 1.80407,-3.520574 5.54212,-10.837778 6.51207,-12.74738 0.66468,-1.30841308 0.774,-1.43552609 1.19168,-1.38716796 0.35771,0.0413888 0.55656,0.24748485 0.89358,0.92588826 0.49847,1.0037161 2.981,6.2371816 4.89106,10.3113947 0.38014,0.81062 1.06365,2.254147 1.5191,3.207823 0.80513,1.685592 0.97779,2.09149 1.02381,2.405332 0.0125,0.08315 -0.77266,0.161181 -1.74403,0.173392 l -1.76624,0.02217 -0.76679,-1.647262 c -0.42168,-0.905994 -1.0625,-2.271486 -1.42398,-3.034427 -0.36148,-0.762946 -0.92762,-1.972383 -1.25825,-2.687643 -1.23526,-2.6729232 -1.39302,-2.9656101 -1.52435,-2.8282814 -0.074,0.077352 -1.24375,2.3254353 -2.59932,4.9957334 -1.35576,2.670299 -2.52955,4.925964 -2.60855,5.012579 -0.16688,0.182956 -0.61203,0.208213 -2.4458,0.138834 z m -59.094558,-1.43508 c 0,-1.297183 0.02404,-1.391227 0.330653,-1.293911 0.181853,0.05775 0.6891,0.01466 1.127219,-0.09564 1.529588,-0.385148 2.277912,-1.873072 1.556364,-3.094561 -0.528618,-0.894878 -0.787755,-0.959846 -4.19965,-1.052878 L 45.10918,10.341069 45.08086,8.8256989 C 45.0638,7.914774 45.1242,7.282884 45.232004,7.2415244 c 0.09873,-0.037793 1.191135,-0.071781 2.42755,-0.075406 1.236431,-0.0037 2.462585,-0.088584 2.724801,-0.1888074 0.931979,-0.3562025 1.419266,-1.7092925 0.970371,-2.69451 C 50.946897,3.3877239 50.466634,3.238987 47.681322,3.1451362 l -2.57305,-0.086698 -0.01448,-1.3004711 -0.01448,-1.30046904 2.847644,0.003449 c 3.335039,0.004075 3.841868,0.1317154 5.074702,1.27822824 1.549532,1.4410183 2.062538,3.41748 1.364274,5.2560314 -0.170382,0.4486185 -0.361954,0.8678419 -0.42573,0.93161 -0.06378,0.063772 0.186753,0.4770082 0.556711,0.9182986 0.91804,1.0950352 1.301826,2.1220567 1.304201,3.4899957 0.0053,2.830976 -2.270332,5.028481 -5.206348,5.028481 l -1.120654,9e-6 z"
     id="path2342"
     sodipodi:nodetypes="scccccccssscccssssscsssssssssssssssscccssscccsssssccccsccssssssscssssssscscssccsssssccccssssscccscs" /><text
     xml:space="preserve"
     style="font-style:normal;font-variant:normal;font-weight:normal;font-stretch:normal;font-size:9.27352px;font-family:'Franklin Gothic Medium';-inkscape-font-specification:'Franklin Gothic Medium, ';letter-spacing:10.7003px;fill:#000000;stroke-width:0.535014"
     x="134.54292"
     y="12.133446"
     id="text2553"><tspan
       sodipodi:role="line"
       id="tspan2551"
       x="134.54292"
       y="12.133446"
       style="stroke-width:0.535014">STUDIO</tspan></text></svg>
