<?xml version="1.0" encoding="UTF-8" standalone="no"?>
<svg
   width="229"
   height="20"
   viewBox="0 0 229 20"
   fill="none"
   version="1.1"
   id="svg1053"
   sodipodi:docname="logo.svg"
   inkscape:version="1.2.2 (732a01da63, 2022-12-09)"
   xmlns:inkscape="http://www.inkscape.org/namespaces/inkscape"
   xmlns:sodipodi="http://sodipodi.sourceforge.net/DTD/sodipodi-0.dtd"
   xmlns="http://www.w3.org/2000/svg"
   xmlns:svg="http://www.w3.org/2000/svg">
  <defs
     id="defs1057" />
  <sodipodi:namedview
     id="namedview1055"
     pagecolor="#ffffff"
     bordercolor="#000000"
     borderopacity="0.25"
     inkscape:showpageshadow="2"
     inkscape:pageopacity="0.0"
     inkscape:pagecheckerboard="0"
     inkscape:deskcolor="#d1d1d1"
     showgrid="false"
     inkscape:zoom="22.218341"
     inkscape:cx="35.871265"
     inkscape:cy="10.261792"
     inkscape:window-width="1920"
     inkscape:window-height="1004"
     inkscape:window-x="-8"
     inkscape:window-y="-8"
     inkscape:window-maximized="1"
     inkscape:current-layer="svg1053" />
  <path
     fill-rule="evenodd"
     clip-rule="evenodd"
     d="M8.866 5.07c-2.151 0-3.81 1.66-3.81 3.93 0 2.19 1.648 3.88 3.77 3.93.94-.006 1.846-.376 3.02-1.333.848-.693 1.688-1.563 2.678-2.63-.963-1.037-1.786-1.886-2.617-2.564C10.725 5.44 9.814 5.07 8.866 5.07Zm9.103.166c-.946-1.01-1.903-1.977-2.87-2.766C13.405 1.09 11.396 0 8.866 0 3.809 0 0 4.044 0 9c0 4.901 3.808 8.911 8.759 9h.045c2.531 0 4.54-1.09 6.232-2.47.989-.807 1.967-1.8 2.933-2.832.966 1.033 1.944 2.025 2.932 2.832 1.692 1.38 3.702 2.47 6.233 2.47C32.112 18 36 13.972 36 9c0-5.005-3.982-9-8.928-9-2.531 0-4.54 1.09-6.233 2.47-.967.79-1.924 1.757-2.87 2.766Zm3.445 3.73c.99 1.068 1.83 1.938 2.679 2.63 1.182.965 2.093 1.334 3.041 1.334 2.105 0 3.81-1.677 3.81-3.93 0-2.22-1.735-3.93-3.872-3.93-.948 0-1.86.369-3.041 1.333-.831.678-1.654 1.527-2.617 2.564Z"
     fill="#D82828"
     id="path1049" />
  <text
     xml:space="preserve"
     style="font-weight:bold;font-size:22.7979px;font-family:Gadugi;-inkscape-font-specification:'Gadugi Bold';display:inline;fill:#000000;stroke-width:1.31527"
     x="43.252388"
     y="17.145792"
     id="text1802"><tspan
       sodipodi:role="line"
       id="tspan1800"
       x="0"
       y="0"
       style="font-size:22.7979px;fill:#000000;stroke-width:1.31527">Buana Studios</tspan></text>
</svg>
